<svg width="1140" height="520" xmlns="http://www.w3.org/2000/svg"><path d="M527,129L791,243L782,84Z" fill="#8ec481" stroke="#8ec481" stroke-width="1.51"></path><path d="M791,243L950,55L782,84Z" fill="#87bf7b" stroke="#87bf7b" stroke-width="1.51"></path><path d="M791,243L996,289L950,55Z" fill="#7ab674" stroke="#7ab674" stroke-width="1.51"></path><path d="M527,129L742,477L791,243Z" fill="#7fbb79" stroke="#7fbb79" stroke-width="1.51"></path><path d="M742,477L996,289L791,243Z" fill="#6db06d" stroke="#6db06d" stroke-width="1.51"></path><path d="M666,-364L501,-159L782,84Z" fill="#b2d695" stroke="#b2d695" stroke-width="1.51"></path><path d="M782,84L501,-159L527,129Z" fill="#a5d18d" stroke="#a5d18d" stroke-width="1.51"></path><path d="M527,129L405,481L742,477Z" fill="#7fbb79" stroke="#7fbb79" stroke-width="1.51"></path><path d="M0,183L405,481L527,129Z" fill="#9ecd8a" stroke="#9ecd8a" stroke-width="1.51"></path><path d="M996,289L1163,136L950,55Z" fill="#78b070" stroke="#78b070" stroke-width="1.51"></path><path d="M950,55L666,-364L782,84Z" fill="#a1cc88" stroke="#a1cc88" stroke-width="1.51"></path><path d="M996,-395L666,-364L950,55Z" fill="#a8cf8e" stroke="#a8cf8e" stroke-width="1.51"></path><path d="M405,481L748,742L742,477Z" fill="#65a466" stroke="#65a466" stroke-width="1.51"></path><path d="M742,477L1083,686L996,289Z" fill="#569d5d" stroke="#569d5d" stroke-width="1.51"></path><path d="M996,289L1254,479L1163,136Z" fill="#619f62" stroke="#619f62" stroke-width="1.51"></path><path d="M666,-364L459,-393L501,-159Z" fill="#c4e1a4" stroke="#c4e1a4" stroke-width="1.51"></path><path d="M501,-159L89,-54L527,129Z" fill="#bcdd99" stroke="#bcdd99" stroke-width="1.51"></path><path d="M182,-370L89,-54L501,-159Z" fill="#d3e9a7" stroke="#d3e9a7" stroke-width="1.51"></path><path d="M405,481L431,924L748,742Z" fill="#639c62" stroke="#639c62" stroke-width="1.51"></path><path d="M0,183L205,618L405,481Z" fill="#93c581" stroke="#93c581" stroke-width="1.51"></path><path d="M1278,-104L996,-395L950,55Z" fill="#97be7f" stroke="#97be7f" stroke-width="1.51"></path><path d="M666,-364L996,-395L459,-393Z" fill="#badaa4" stroke="#badaa4" stroke-width="1.51"></path><path d="M748,742L1083,686L742,477Z" fill="#4f9357" stroke="#4f9357" stroke-width="1.51"></path><path d="M1083,686L1254,479L996,289Z" fill="#4e9255" stroke="#4e9255" stroke-width="1.51"></path><path d="M89,-54L0,183L527,129Z" fill="#bcdd99" stroke="#bcdd99" stroke-width="1.51"></path><path d="M1504,-176L1278,-104L1580,226Z" fill="#79a26c" stroke="#79a26c" stroke-width="1.51"></path><path d="M1163,136L1278,-104L950,55Z" fill="#82b172" stroke="#82b172" stroke-width="1.51"></path><path d="M431,924L899,842L748,742Z" fill="#4f8956" stroke="#4f8956" stroke-width="1.51"></path><path d="M748,742L899,842L1083,686Z" fill="#44864f" stroke="#44864f" stroke-width="1.51"></path><path d="M89,-54L-85,135L0,183Z" fill="#c9e4a0" stroke="#c9e4a0" stroke-width="1.51"></path><path d="M459,-393L182,-370L501,-159Z" fill="#d0e8ab" stroke="#d0e8ab" stroke-width="1.51"></path><path d="M-210,-100L-85,135L89,-54Z" fill="#d6eba8" stroke="#d6eba8" stroke-width="1.51"></path><path d="M0,183L-207,438L205,618Z" fill="#a2cd89" stroke="#a2cd89" stroke-width="1.51"></path><path d="M1278,-104L1215,-348L996,-395Z" fill="#9bbc83" stroke="#9bbc83" stroke-width="1.51"></path><path d="M262,852L431,924L405,481Z" fill="#6d9f66" stroke="#6d9f66" stroke-width="1.51"></path><path d="M-222,747L262,852L205,618Z" fill="#81aa70" stroke="#81aa70" stroke-width="1.51"></path><path d="M205,618L262,852L405,481Z" fill="#7aab6d" stroke="#7aab6d" stroke-width="1.51"></path><path d="M996,-395L-29,-392L459,-393Z" fill="#cbe5b0" stroke="#cbe5b0" stroke-width="1.51"></path><path d="M459,-393L-29,-392L182,-370Z" fill="#e0efba" stroke="#e0efba" stroke-width="1.51"></path><path d="M182,-370L-29,-392L89,-54Z" fill="#e5f2b2" stroke="#e5f2b2" stroke-width="1.51"></path><path d="M1580,226L1278,-104L1163,136Z" fill="#73a369" stroke="#73a369" stroke-width="1.51"></path><path d="M1278,-104L1504,-176L1215,-348Z" fill="#8fb17a" stroke="#8fb17a" stroke-width="1.51"></path><path d="M-308,410L-207,438L-85,135Z" fill="#b5d897" stroke="#b5d897" stroke-width="1.51"></path><path d="M-85,135L-207,438L0,183Z" fill="#b9db9a" stroke="#b9db9a" stroke-width="1.51"></path><path d="M1254,479L1580,226L1163,136Z" fill="#5b975f" stroke="#5b975f" stroke-width="1.51"></path><path d="M1631,481L1580,226L1254,479Z" fill="#488551" stroke="#488551" stroke-width="1.51"></path><path d="M-29,-392L-210,-100L89,-54Z" fill="#e6f2b2" stroke="#e6f2b2" stroke-width="1.51"></path><path d="M1083,686L1476,731L1254,479Z" fill="#3c7a46" stroke="#3c7a46" stroke-width="1.51"></path><path d="M1400,968L1476,731L1083,686Z" fill="#2f6b3e" stroke="#2f6b3e" stroke-width="1.51"></path><path d="M-207,438L-222,747L205,618Z" fill="#94ba7c" stroke="#94ba7c" stroke-width="1.51"></path><path d="M-500,154L-308,410L-85,135Z" fill="#c5e1a3" stroke="#c5e1a3" stroke-width="1.51"></path><path d="M1580,226L1680,84L1504,-176Z" fill="#6e9664" stroke="#6e9664" stroke-width="1.51"></path><path d="M1476,731L1631,481L1254,479Z" fill="#397746" stroke="#397746" stroke-width="1.51"></path><path d="M1631,481L1680,84L1580,226Z" fill="#528556" stroke="#528556" stroke-width="1.51"></path><path d="M-308,410L-222,747L-207,438Z" fill="#a2c688" stroke="#a2c688" stroke-width="1.51"></path><path d="M262,852L-518,898L431,924Z" fill="#799b6a" stroke="#799b6a" stroke-width="1.51"></path><path d="M1476,731L1400,968L1631,481Z" fill="#2d673c" stroke="#2d673c" stroke-width="1.51"></path><path d="M899,842L1400,968L1083,686Z" fill="#357141" stroke="#357141" stroke-width="1.51"></path><path d="M431,924L1400,968L899,842Z" fill="#3c7748" stroke="#3c7748" stroke-width="1.51"></path><path d="M-210,-100L-500,154L-85,135Z" fill="#d8ecab" stroke="#d8ecab" stroke-width="1.51"></path><path d="M-308,410L-518,898L-222,747Z" fill="#98b884" stroke="#98b884" stroke-width="1.51"></path><path d="M-470,-118L-500,154L-210,-100Z" fill="#e4f2b8" stroke="#e4f2b8" stroke-width="1.51"></path><path d="M-498,-221L-470,-118L-210,-100Z" fill="#f0f8c0" stroke="#f0f8c0" stroke-width="1.51"></path><path d="M-29,-392L-498,-221L-210,-100Z" fill="#f3f9bc" stroke="#f3f9bc" stroke-width="1.51"></path><path d="M-470,-118L-498,-221L-500,154Z" fill="#eaf4c1" stroke="#eaf4c1" stroke-width="1.51"></path><path d="M-498,-221L-518,898L-500,154Z" fill="#c2dfad" stroke="#c2dfad" stroke-width="1.51"></path><path d="M-500,154L-518,898L-308,410Z" fill="#aacd98" stroke="#aacd98" stroke-width="1.51"></path><path d="M-222,747L-518,898L262,852Z" fill="#88a774" stroke="#88a774" stroke-width="1.51"></path><path d="M431,924L-518,898L1400,968Z" fill="#5d8a5b" stroke="#5d8a5b" stroke-width="1.51"></path></svg>